<?xml version="1.0" standalone="no"?>
<!DOCTYPE svg PUBLIC "-//W3C//DTD SVG 20010904//EN"
 "http://www.w3.org/TR/2001/REC-SVG-20010904/DTD/svg10.dtd">
<svg version="1.0" xmlns="http://www.w3.org/2000/svg"
 width="512.000000pt" height="512.000000pt" viewBox="0 0 512.000000 512.000000"
 preserveAspectRatio="xMidYMid meet">
<metadata>
Created by potrace 1.11, written by Peter Selinger 2001-2013
</metadata>
<g transform="translate(0.000000,512.000000) scale(0.100000,-0.100000)"
fill="#000000" stroke="none">
<path d="M1275 5105 c-47 -21 -68 -28 -95 -30 -14 -2 -41 -6 -60 -9 -53 -10
-279 -8 -332 2 -27 5 -48 6 -48 2 0 -8 -155 -4 -169 4 -5 4 -21 2 -34 -3 -19
-8 -29 -6 -38 5 -6 8 -17 11 -23 7 -6 -5 -59 -8 -118 -8 l-106 0 -6 -29 c-3
-16 -6 -39 -6 -51 0 -15 -25 -46 -76 -93 -42 -39 -80 -72 -84 -74 -5 -2 -11
-15 -14 -30 -2 -14 -9 -36 -16 -47 -7 -14 -8 -27 -1 -40 6 -10 8 -21 4 -24 -3
-4 0 -20 7 -37 9 -22 10 -34 1 -44 -6 -7 -11 -24 -11 -37 0 -13 0 -37 0 -54 0
-16 -2 -59 -4 -95 -12 -165 -11 -196 5 -212 21 -21 15 -174 -8 -200 -11 -13
-13 -30 -9 -72 5 -37 3 -61 -6 -75 -11 -17 -10 -23 5 -34 20 -14 31 -98 15
-108 -7 -4 -6 -14 1 -28 8 -14 9 -32 3 -54 -5 -17 -6 -41 -2 -52 10 -26 0
-156 -13 -172 -6 -9 -6 -18 2 -27 11 -13 22 -81 38 -228 3 -27 10 -48 16 -49
7 0 1 -5 -12 -10 -21 -8 -23 -14 -17 -49 3 -22 2 -41 -4 -45 -7 -4 -7 -13 0
-26 7 -13 7 -25 1 -37 -7 -13 -7 -22 1 -30 6 -6 8 -21 3 -39 -11 -37 -7 -58
17 -104 15 -30 17 -42 8 -58 -15 -30 -15 -108 1 -127 7 -9 14 -39 16 -67 1
-29 4 -72 5 -97 2 -25 6 -50 10 -56 4 -7 1 -17 -6 -23 -12 -10 -12 -16 -1 -37
8 -17 10 -37 5 -60 -5 -20 -4 -37 2 -40 5 -4 8 -20 5 -38 -2 -17 -1 -39 5 -48
5 -10 5 -32 0 -50 -5 -19 -4 -48 2 -69 7 -26 6 -49 -2 -75 -9 -30 -9 -40 1
-46 8 -5 12 -37 13 -90 0 -46 4 -91 8 -100 4 -9 3 -26 -4 -37 -8 -16 -8 -21 2
-21 9 0 9 -3 -2 -10 -11 -7 -15 -32 -16 -105 -1 -52 -5 -103 -9 -112 -16 -41
-15 -64 5 -85 13 -14 18 -28 13 -38 -9 -19 -8 -58 2 -140 4 -36 6 -92 5 -125
-6 -113 4 -187 26 -206 20 -16 17 -29 -6 -29 -14 0 -20 -7 -21 -22 -4 -119 -8
-132 -57 -184 -10 -11 -10 -17 0 -33 10 -17 9 -24 -11 -45 l-24 -26 19 -37
c10 -21 24 -42 30 -48 15 -13 25 -83 13 -90 -12 -8 -12 -55 1 -55 6 0 10 -7
10 -15 0 -8 6 -24 12 -35 10 -15 10 -24 1 -39 -9 -15 -8 -24 10 -49 19 -26 26
-29 57 -24 19 3 37 8 40 11 11 13 71 12 97 -2 64 -34 134 -40 288 -25 45 4 84
-3 99 -17 20 -20 142 -18 162 3 10 9 14 10 14 2 0 -8 7 -9 18 -5 20 9 36 9 77
0 33 -8 98 -7 160 1 22 3 45 6 50 6 173 -2 187 -2 201 9 15 12 54 14 80 5 14
-4 27 -1 36 7 10 10 34 13 86 11 39 -1 74 1 76 5 13 21 206 -8 239 -37 15 -14
19 -13 35 1 21 19 42 22 42 7 0 -14 34 -12 48 2 10 10 15 10 22 -2 7 -12 12
-12 34 0 14 7 26 17 26 22 0 5 13 2 29 -6 16 -9 32 -12 36 -8 5 4 5 -1 2 -11
-8 -21 9 -23 20 -2 12 21 74 9 80 -17 3 -10 8 -18 12 -19 3 0 17 -2 30 -5 13
-2 32 2 41 11 9 8 20 12 23 8 4 -3 20 -7 37 -8 28 -2 34 4 31 31 -2 16 74 17
88 0 11 -13 17 -12 45 5 27 16 39 17 61 9 14 -6 30 -8 35 -5 5 3 11 1 15 -5 3
-5 17 -10 30 -10 13 0 27 -4 30 -10 4 -6 13 -5 25 2 13 9 25 9 42 1 13 -6 38
-8 57 -5 22 3 36 0 42 -9 6 -11 12 -10 31 7 13 11 37 21 53 22 17 2 45 8 63
14 27 8 37 7 50 -6 11 -10 22 -12 32 -6 8 5 22 4 33 -2 10 -5 28 -7 40 -4 12
3 27 0 34 -6 8 -6 24 -7 40 -2 16 4 32 6 36 6 4 -1 46 -4 93 -7 46 -3 93 -9
103 -14 13 -7 24 -6 40 5 17 12 25 13 36 4 8 -6 22 -9 32 -6 10 3 43 -1 73 -9
48 -13 56 -13 72 1 14 13 23 14 49 5 22 -7 35 -8 39 -1 9 15 70 25 70 11 0 -7
5 -9 10 -6 12 7 121 7 165 0 68 -11 93 -12 105 -5 7 4 28 3 47 -2 24 -6 39 -6
48 2 9 8 29 8 66 2 29 -6 60 -6 68 -2 44 21 85 29 92 19 4 -8 28 -10 68 -6 34
2 64 1 67 -4 3 -5 10 -9 17 -9 8 0 8 3 -1 12 -17 17 26 37 56 27 14 -6 22 -5
22 3 0 6 3 9 6 5 4 -3 29 3 58 13 28 11 59 20 69 20 10 0 20 7 23 15 4 8 18
15 34 15 22 0 30 6 39 30 5 17 15 30 20 30 6 0 11 12 11 28 0 15 9 35 19 44
17 14 18 22 9 54 -7 26 -7 44 1 61 9 19 7 32 -11 66 -12 23 -22 60 -23 82 0
22 -4 46 -9 53 -4 7 -8 42 -8 78 0 35 -5 64 -9 64 -5 0 -7 11 -3 24 3 14 -1
39 -11 59 -17 36 -17 149 0 190 5 11 1 25 -11 38 -17 18 -17 21 -1 55 10 19
15 45 11 58 -3 15 -1 25 9 29 19 7 58 75 47 82 -5 3 -5 18 0 34 4 16 6 32 2
35 -3 3 0 6 7 6 9 0 12 9 9 25 -4 18 0 26 13 30 15 5 19 16 19 56 0 48 -1 49
-30 49 -28 0 -37 12 -31 44 1 5 -2 12 -6 15 -21 15 -41 58 -33 71 5 8 5 19 0
25 -5 6 -10 25 -10 41 -1 60 -6 159 -9 164 -3 5 -5 19 -15 79 -3 18 -7 36 -10
38 -3 3 -1 16 4 29 6 15 6 34 -1 51 -8 22 -7 30 6 39 12 9 16 25 14 62 -2 28
2 56 7 64 19 26 37 94 39 147 2 38 7 56 19 63 18 10 22 38 4 38 -6 0 -8 3 -5
7 4 3 2 12 -4 19 -8 10 -6 22 10 47 11 19 18 36 15 39 -3 3 -7 34 -10 69 -6
90 -6 88 -21 82 -12 -5 -19 38 -13 90 1 10 -6 29 -15 43 -10 16 -15 43 -14 78
1 29 -2 59 -7 67 -5 8 -9 43 -10 78 -2 51 1 68 14 78 11 8 12 12 5 13 -7 0
-13 12 -13 28 0 15 -6 45 -14 66 -12 34 -12 42 0 54 17 16 17 11 0 61 -13 36
-13 42 0 55 12 12 12 19 3 34 -10 16 -8 27 10 62 12 23 20 45 17 47 -3 3 -1
16 5 29 7 19 5 26 -6 30 -9 4 -13 14 -10 28 3 11 7 34 10 50 2 16 8 32 13 35
16 11 36 115 23 119 -6 2 -11 10 -11 18 0 8 -9 14 -19 14 -11 0 -22 4 -25 9
-10 16 5 41 24 41 20 0 39 60 35 105 -2 15 2 28 11 32 12 4 11 8 -1 26 -19 27
-19 61 -1 76 20 17 25 58 10 80 -12 16 -23 63 -26 109 -1 6 -5 12 -8 12 -12 0
-28 77 -19 92 13 19 11 26 -13 50 -22 22 -31 80 -17 109 9 18 -23 52 -60 64
-12 3 -21 13 -21 20 0 8 -13 21 -29 30 -16 8 -38 26 -49 40 -16 19 -29 25 -61
25 -35 0 -43 4 -51 25 -6 16 -14 23 -25 19 -8 -3 -15 -10 -15 -15 0 -6 -7 -6
-18 0 -10 5 -31 11 -47 14 -57 8 -95 20 -95 28 0 4 -10 6 -22 4 -12 -3 -25 0
-29 6 -3 6 -18 12 -33 12 -24 2 -31 9 -27 30 1 4 -4 7 -11 6 -14 -2 -49 10
-58 20 -11 13 -73 41 -89 41 -9 0 -22 5 -28 11 -7 7 -22 9 -40 4 -51 -14 -67
-14 -116 3 -35 12 -50 13 -59 4 -8 -8 -17 -8 -30 -1 -11 6 -26 8 -33 5 -8 -3
-15 0 -17 5 -5 14 -37 18 -69 9 -16 -5 -31 -4 -38 3 -8 8 -14 8 -23 -1 -13
-13 -80 -17 -92 -5 -10 11 -126 13 -126 3 0 -15 -36 -21 -64 -11 -18 7 -26 7
-26 0 0 -6 -6 -7 -12 -3 -7 5 -33 10 -58 12 -25 1 -55 4 -67 5 -13 1 -23 6
-23 10 0 5 -10 5 -22 1 -13 -4 -32 -8 -43 -9 -11 -2 -40 -8 -64 -15 -35 -9
-45 -9 -52 1 -6 10 -16 10 -46 1 -47 -14 -72 -15 -136 -7 -27 3 -40 0 -44 -10
-4 -12 -17 -14 -62 -9 -61 7 -154 7 -243 0 -50 -4 -60 -1 -83 20 -26 24 -28
24 -46 8 -16 -15 -25 -15 -57 -6 -20 7 -46 13 -57 14 -11 2 -25 10 -32 18 -7
8 -13 10 -13 4 0 -13 -59 -6 -79 9 -17 14 -41 18 -41 6 0 -5 -7 -9 -15 -9 -9
0 -18 -7 -21 -15 -8 -19 -31 -19 -66 -1 -16 8 -28 11 -28 6 0 -4 -14 -13 -30
-19 -26 -9 -32 -7 -43 9 -8 13 -23 20 -44 20 -24 0 -33 5 -33 16 0 13 -7 14
-42 8 -24 -5 -54 -7 -68 -6 -119 11 -303 12 -314 3 -7 -6 -26 -9 -42 -6 -83
13 -161 13 -189 0z m845 -195 c53 -13 90 -44 90 -76 0 -47 -9 -49 -369 -46
-366 3 -668 -9 -745 -28 -64 -17 -116 -68 -116 -114 0 -55 13 -59 162 -51 140
7 272 -4 365 -31 57 -16 98 -55 134 -125 28 -55 58 -194 66 -306 3 -51 10 -93
16 -93 28 0 285 95 305 113 35 33 30 58 -41 179 -43 75 -43 93 4 128 37 26 98
32 124 10 27 -22 35 -53 61 -240 45 -317 53 -637 23 -855 -15 -111 -59 -297
-77 -329 -34 -57 -131 -85 -180 -50 -12 8 -22 24 -22 34 0 11 18 93 41 182 36
147 42 184 52 368 11 184 7 383 -6 397 -3 3 -52 -11 -109 -31 -57 -19 -122
-38 -145 -42 l-43 -7 0 -50 c0 -28 -9 -125 -20 -216 -24 -190 -65 -334 -156
-539 -59 -133 -87 -182 -142 -250 -45 -55 -78 -72 -142 -72 -46 0 -51 3 -61
27 -9 24 2 52 100 252 61 124 122 260 136 301 42 120 101 539 78 540 -5 1 -75
9 -158 19 -82 10 -153 16 -156 12 -3 -3 -18 -61 -33 -128 -20 -89 -46 -164
-95 -276 -145 -328 -198 -405 -285 -414 -53 -6 -96 15 -96 49 0 11 50 117 111
235 128 247 138 275 185 485 29 136 34 175 34 293 0 130 1 137 24 160 32 32
69 40 107 25 52 -22 64 -51 64 -164 0 -56 4 -106 8 -112 6 -11 90 -25 235 -40
l62 -6 0 50 c0 69 -19 249 -31 294 -18 70 -110 91 -339 78 -148 -9 -206 -3
-261 25 -64 34 -107 132 -89 208 16 73 62 123 160 172 126 63 248 75 750 70
236 -2 392 -8 420 -15z m1724 1 c10 -11 27 -65 39 -124 l21 -105 75 4 c45 2
78 8 84 16 6 9 7 8 3 -4 -4 -13 0 -18 12 -18 10 0 47 -10 82 -22 183 -61 259
-253 218 -547 -9 -63 -9 -88 0 -102 16 -25 15 -34 -2 -20 -12 10 -17 3 -30
-36 -23 -68 -78 -146 -136 -192 -59 -47 -68 -50 -179 -65 -86 -11 -86 -11 -98
-46 -14 -40 -17 -129 -5 -147 8 -13 37 -20 235 -52 127 -21 186 -46 221 -94
18 -25 21 -41 19 -119 -3 -147 -31 -166 -160 -104 -65 31 -81 35 -202 41 -147
8 -182 20 -218 74 -38 57 -54 127 -54 242 1 211 63 392 153 447 18 11 71 29
118 42 129 34 156 47 172 83 28 68 6 266 -31 268 -9 0 -11 3 -4 5 7 3 9 12 6
20 -4 12 -8 13 -13 4 -6 -9 -10 -6 -14 8 -10 29 -21 31 -135 25 -73 -4 -108
-11 -123 -22 -16 -14 -24 -46 -43 -182 -33 -227 -34 -232 -126 -456 -94 -228
-127 -297 -164 -335 -33 -35 -77 -37 -99 -6 -30 43 -12 188 35 280 19 38 19
38 -1 38 -26 0 -444 -51 -448 -55 -3 -2 19 -389 22 -391 0 -1 55 7 121 17 132
20 299 24 339 9 74 -28 101 -190 43 -255 -21 -23 -31 -25 -235 -40 -117 -8
-224 -15 -238 -15 l-25 0 6 -182 c3 -101 8 -194 11 -207 l5 -24 126 6 c70 3
130 10 136 16 14 14 40 15 32 1 -4 -6 12 -11 39 -12 25 -1 54 -2 64 -2 25 -1
82 -56 98 -94 16 -36 33 -40 87 -17 75 31 247 8 332 -45 43 -27 109 -101 145
-163 l27 -48 7 32 c3 17 6 62 6 99 0 51 -4 69 -15 74 -20 7 -19 46 1 46 12 0
14 7 9 33 -24 119 -75 194 -159 233 -61 29 -151 32 -232 8 l-55 -16 6 -39 c5
-35 4 -39 -15 -39 -11 0 -20 4 -20 10 0 5 -7 7 -15 4 -8 -4 -15 -1 -15 5 0 6
5 11 10 11 6 0 10 6 10 14 0 9 -10 14 -27 14 -49 -1 -54 1 -69 38 -18 42 -11
129 13 181 21 46 75 90 125 104 56 15 182 14 252 -2 45 -10 58 -10 71 1 8 7
19 10 22 6 4 -4 1 -11 -6 -15 -10 -7 -1 -14 31 -28 60 -27 110 -73 139 -128
17 -31 29 -43 39 -40 11 5 12 3 4 -5 -8 -8 -4 -34 13 -93 67 -227 71 -497 9
-674 -7 -21 -11 -44 -8 -51 2 -7 -3 -21 -11 -30 -34 -40 -47 -112 -47 -266 0
-401 66 -920 156 -1230 53 -182 60 -240 39 -312 -53 -184 -141 -91 -214 226
-82 357 -108 548 -136 975 -20 309 -17 297 -53 285 -47 -16 -296 -40 -348 -34
-103 12 -122 31 -145 140 -22 106 13 183 85 185 17 0 25 3 19 6 -19 7 -16 30
4 37 12 5 25 -2 43 -22 22 -26 34 -31 96 -36 65 -6 72 -5 70 11 0 9 7 19 17
21 20 4 24 -24 5 -31 -7 -3 7 -6 30 -6 60 -1 105 22 125 65 9 19 17 40 17 46
0 45 -165 172 -223 171 -38 0 -145 -39 -126 -45 8 -3 11 -9 6 -13 -4 -5 -17
-3 -30 3 -12 6 -38 14 -57 18 -49 9 -57 18 -70 81 -11 49 -14 54 -33 50 -12
-3 -115 -9 -230 -13 -200 -6 -207 -7 -212 -28 -2 -11 -9 -158 -15 -326 -19
-555 -34 -764 -91 -1295 -21 -201 -32 -256 -55 -292 -17 -27 -59 -30 -91 -8
-25 17 -47 76 -39 102 3 10 17 178 31 373 14 195 39 534 55 753 29 391 39 687
21 687 -5 0 -27 -7 -50 -15 -51 -18 -98 -4 -112 32 -5 13 -9 62 -9 107 0 114
18 140 118 174 l74 24 -6 87 c-3 47 -8 190 -11 316 -7 268 -18 441 -46 764
-19 206 -20 251 -9 360 25 270 63 375 172 476 97 90 138 104 328 118 183 13
207 8 232 -43 33 -65 19 -198 -24 -221 -10 -6 -92 -21 -181 -34 -89 -13 -182
-31 -206 -40 -115 -40 -151 -109 -151 -286 0 -108 0 -109 23 -104 51 11 315
35 389 35 69 0 82 -3 102 -23 13 -13 26 -42 30 -67 l7 -45 25 60 c81 198 114
328 134 530 10 98 9 142 -2 240 -16 136 -10 200 23 228 28 22 62 22 83 -2z
m-304 -131 c-19 -12 -35 3 -26 26 6 17 8 17 24 0 15 -15 15 -18 2 -26z m-630
-10 c0 -5 -4 -10 -10 -10 -5 0 -10 5 -10 10 0 6 5 10 10 10 6 0 10 -4 10 -10z
m1540 -164 c0 -3 -4 -8 -10 -11 -5 -3 -10 -1 -10 4 0 6 5 11 10 11 6 0 10 -2
10 -4z m20 -50 c0 -3 -4 -8 -10 -11 -5 -3 -10 -1 -10 4 0 6 5 11 10 11 6 0 10
-2 10 -4z m50 -66 c0 -5 -2 -10 -4 -10 -3 0 -8 5 -11 10 -3 6 -1 10 4 10 6 0
11 -4 11 -10z m-1890 -10 c0 -5 -4 -10 -10 -10 -5 0 -10 5 -10 10 0 6 5 10 10
10 6 0 10 -4 10 -10z m65 -20 c3 -5 1 -10 -4 -10 -6 0 -11 5 -11 10 0 6 2 10
4 10 3 0 8 -4 11 -10z m-720 -270 c3 -5 1 -10 -4 -10 -6 0 -11 5 -11 10 0 6 2
10 4 10 3 0 8 -4 11 -10z m382 -92 c-3 -8 -6 -5 -6 6 -1 11 2 17 5 13 3 -3 4
-12 1 -19z m2083 -108 c0 -5 -5 -10 -11 -10 -5 0 -7 5 -4 10 3 6 8 10 11 10 2
0 4 -4 4 -10z m105 -350 c3 -5 -1 -10 -10 -10 -9 0 -13 5 -10 10 3 6 8 10 10
10 2 0 7 -4 10 -10z m22 -136 c-9 -9 -28 6 -21 18 4 6 10 6 17 -1 6 -6 8 -13
4 -17z m33 -34 c0 -11 -7 -20 -15 -20 -8 0 -15 9 -15 20 0 11 7 20 15 20 8 0
15 -9 15 -20z m-1150 -75 c0 -8 -4 -15 -10 -15 -5 0 -10 7 -10 15 0 8 5 15 10
15 6 0 10 -7 10 -15z m1130 -16 c0 -5 -7 -9 -15 -9 -9 0 -12 6 -9 15 6 15 24
11 24 -6z m107 -144 c-7 -19 -36 -16 -47 6 -7 12 -8 19 -2 15 5 -3 13 2 17 12
6 16 7 16 21 -3 8 -10 13 -24 11 -30z m-169 17 c2 -7 -2 -10 -12 -6 -9 3 -16
11 -16 16 0 13 23 5 28 -10z m-66 -44 c-7 -7 -12 -8 -12 -2 0 6 3 14 7 17 3 4
9 5 12 2 2 -3 -1 -11 -7 -17z m138 1 c0 -6 -4 -7 -10 -4 -5 3 -10 11 -10 16 0
6 5 7 10 4 6 -3 10 -11 10 -16z m26 -36 c-10 -10 -19 5 -10 18 6 11 8 11 12 0
2 -7 1 -15 -2 -18z m-486 -28 c10 -12 10 -22 2 -39 -7 -17 -7 -27 1 -35 14
-14 3 -25 -18 -17 -11 4 -14 13 -10 25 3 12 0 21 -10 25 -18 7 -20 42 -2 49
20 9 24 8 37 -8z m-110 -15 c0 -5 -2 -10 -4 -10 -3 0 -8 5 -11 10 -3 6 -1 10
4 10 6 0 11 -4 11 -10z m830 -26 c0 -17 -22 -14 -28 4 -2 7 3 12 12 12 9 0 16
-7 16 -16z m-220 -59 c0 -8 -4 -15 -9 -15 -13 0 -22 16 -14 24 11 11 23 6 23
-9z m-900 1 c0 -11 -19 -15 -25 -6 -3 5 1 10 9 10 9 0 16 -2 16 -4z m595 -36
c0 -28 -27 -39 -50 -20 -21 18 -1 52 28 48 16 -2 22 -10 22 -28z m99 -16 c3
-8 2 -12 -4 -9 -6 3 -10 10 -10 16 0 14 7 11 14 -7z m-25 -60 c-6 -8 -15 -14
-20 -14 -14 0 -11 28 4 33 20 7 29 -4 16 -19z m-1229 -75 c0 -5 -7 -9 -15 -9
-15 0 -20 12 -9 23 8 8 24 -1 24 -14z m1686 -16 c-10 -10 -19 5 -10 18 6 11 8
11 12 0 2 -7 1 -15 -2 -18z m88 6 c-3 -5 -10 -7 -15 -3 -5 3 -7 10 -3 15 3 5
10 7 15 3 5 -3 7 -10 3 -15z m-1674 -8 c0 -24 -18 -37 -31 -24 -13 13 -1 43
17 43 8 0 14 -9 14 -19z m1630 -2 c0 -5 -7 -9 -15 -9 -15 0 -20 12 -9 23 8 8
24 -1 24 -14z m-440 1 c0 -5 -4 -10 -10 -10 -5 0 -10 5 -10 10 0 6 5 10 10 10
6 0 10 -4 10 -10z m-2130 -95 c0 -8 -4 -15 -10 -15 -5 0 -10 7 -10 15 0 8 5
15 10 15 6 0 10 -7 10 -15z m30 -70 c0 -8 -9 -15 -20 -15 -11 0 -20 7 -20 15
0 8 9 15 20 15 11 0 20 -7 20 -15z m1468 -17 c-3 -25 -25 -33 -48 -18 -13 8
-12 11 5 24 29 22 47 20 43 -6z m62 -53 c0 -8 -7 -15 -15 -15 -8 0 -15 7 -15
15 0 8 7 15 15 15 8 0 15 -7 15 -15z m1178 3 c-2 -6 -10 -14 -16 -16 -7 -2
-10 2 -6 12 7 18 28 22 22 4z m-1408 -22 c0 -11 -19 -15 -25 -6 -3 5 1 10 9
10 9 0 16 -2 16 -4z m100 -16 c0 -5 -4 -10 -10 -10 -5 0 -10 5 -10 10 0 6 5
10 10 10 6 0 10 -4 10 -10z m-2230 -14 c0 -3 -4 -8 -10 -11 -5 -3 -10 -1 -10
4 0 6 5 11 10 11 6 0 10 -2 10 -4z m-41 -71 c37 -19 61 -79 61 -155 0 -54 2
-60 23 -64 12 -3 67 -12 122 -22 119 -20 243 -60 319 -103 62 -36 213 -169
264 -233 19 -24 48 -70 65 -104 25 -51 34 -61 53 -58 18 2 24 -3 24 -17 0 -10
-7 -19 -15 -19 -19 0 -19 4 5 -65 49 -141 9 -225 -106 -225 -51 0 -69 26 -93
131 -23 97 -75 212 -143 312 -22 32 -46 61 -55 64 -19 7 -159 -46 -290 -109
l-102 -50 93 -92 c98 -96 155 -175 211 -291 48 -100 99 -255 120 -362 9 -51
21 -90 26 -88 4 3 6 -4 4 -16 -4 -22 13 -222 22 -249 9 -29 18 -197 16 -294
-3 -110 -15 -161 -43 -176 -29 -16 -135 -12 -149 4 -11 14 -32 192 -46 391 -8
123 -14 157 -32 178 -10 11 -12 17 -4 17 14 0 9 60 -19 226 -25 144 -29 161
-40 144 -4 -7 -13 -9 -19 -6 -16 10 -13 26 5 26 56 0 -103 277 -242 422 -54
56 -43 59 -145 -42 -76 -77 -176 -253 -231 -410 -23 -67 -75 -307 -73 -338 1
-12 -1 -22 -5 -22 -3 0 -12 -75 -19 -167 -12 -158 -11 -168 6 -182 16 -12 16
-13 1 -8 -23 8 -30 -18 -27 -95 4 -95 -29 -138 -106 -138 -33 0 -48 7 -73 31
-17 17 -35 45 -40 62 -5 19 -5 103 1 200 9 143 8 170 -4 179 -11 7 -11 11 -1
15 17 7 15 50 -3 57 -8 3 -15 14 -15 26 0 15 6 19 23 17 18 -2 22 3 22 28 0
17 2 32 5 35 3 3 18 66 32 140 31 156 65 269 110 366 18 38 33 73 33 79 0 5 8
18 18 30 11 11 51 65 91 120 40 55 91 115 114 133 23 19 42 38 42 43 0 6 -60
39 -132 74 -125 59 -200 85 -247 85 -51 0 -150 -133 -136 -183 4 -15 3 -18 -3
-9 -6 9 -22 -21 -52 -98 -66 -171 -124 -220 -210 -175 -57 30 -54 81 19 280
60 165 84 203 173 270 141 106 274 168 471 220 71 19 140 41 154 51 25 16 26
19 20 95 -6 78 -6 78 24 103 35 30 84 34 128 11z m3201 -40 c0 -8 -7 -15 -15
-15 -16 0 -20 12 -8 23 11 12 23 8 23 -8z m70 -51 c0 -8 -7 -14 -15 -14 -17 0
-18 2 -9 24 7 18 24 12 24 -10z m-330 -114 c0 -5 -5 -10 -11 -10 -5 0 -7 5 -4
10 3 6 8 10 11 10 2 0 4 -4 4 -10z m-975 -39 c-9 -16 -25 -3 -18 15 4 10 9 12
15 6 6 -6 7 -15 3 -21z m1280 -82 c12 -19 -5 -23 -22 -6 -16 16 -16 17 -1 17
9 0 20 -5 23 -11z m-1281 -20 c-3 -5 -10 -7 -15 -3 -5 3 -7 10 -3 15 3 5 10 7
15 3 5 -3 7 -10 3 -15z m196 -26 c0 -12 -6 -25 -12 -30 -20 -12 -48 -14 -48
-3 0 18 -2 25 -11 42 -8 14 -4 16 31 15 34 -1 40 -5 40 -24z m-83 -33 c-1 -11
-5 -20 -9 -20 -10 0 -10 4 -2 24 8 22 13 20 11 -4z m243 10 c0 -5 -4 -10 -9
-10 -6 0 -13 5 -16 10 -3 6 1 10 9 10 9 0 16 -4 16 -10z m-400 -21 c11 -19 13
-19 29 -5 18 17 31 12 31 -11 0 -7 -9 -13 -19 -13 -11 0 -22 -6 -24 -12 -3 -8
-6 -6 -6 5 -1 20 -12 22 -29 5 -16 -16 -47 13 -39 36 9 23 44 20 57 -5z m-896
-30 c-3 -5 -10 -7 -15 -3 -5 3 -7 10 -3 15 3 5 10 7 15 3 5 -3 7 -10 3 -15z
m1069 -28 c2 -10 1 -25 -4 -32 -6 -10 -9 -8 -9 8 0 12 -3 29 -7 39 -4 11 -3
15 4 11 6 -4 13 -15 16 -26z m-119 -39 c8 -13 -11 -35 -23 -28 -16 10 -14 36
3 36 8 0 17 -4 20 -8z m63 -10 c15 -10 27 -102 13 -102 -6 0 -19 9 -29 19 -11
11 -22 17 -25 14 -7 -8 -1 39 8 60 9 19 15 21 33 9z m-3337 -42 c0 -5 -2 -10
-4 -10 -3 0 -8 5 -11 10 -3 6 -1 10 4 10 6 0 11 -4 11 -10z m4430 -48 c0 -13
-12 -22 -22 -16 -10 6 -1 24 13 24 5 0 9 -4 9 -8z m-1874 -59 c-10 -10 -19 5
-10 18 6 11 8 11 12 0 2 -7 1 -15 -2 -18z m774 -9 c0 -8 -4 -12 -10 -9 -5 3
-10 13 -10 21 0 8 5 12 10 9 6 -3 10 -13 10 -21z m800 -10 c0 -19 -28 -30 -43
-15 -8 8 -6 15 8 25 22 16 35 12 35 -10z m150 -44 c0 -5 -4 -10 -10 -10 -5 0
-10 5 -10 10 0 6 5 10 10 10 6 0 10 -4 10 -10z m-1880 -74 c0 -3 -4 -8 -10
-11 -5 -3 -10 -1 -10 4 0 6 5 11 10 11 6 0 10 -2 10 -4z m-2110 -20 c0 -3 -4
-8 -10 -11 -5 -3 -10 -1 -10 4 0 6 5 11 10 11 6 0 10 -2 10 -4z m4480 -68 c0
-19 -16 -5 -17 14 -2 18 0 20 7 8 5 -8 10 -18 10 -22z m-570 -18 c0 -5 -4 -10
-10 -10 -5 0 -10 5 -10 10 0 6 5 10 10 10 6 0 10 -4 10 -10z m300 -15 c0 -17
-31 -28 -43 -16 -7 7 -6 15 2 25 14 17 41 11 41 -9z m-2165 5 c3 -5 1 -10 -4
-10 -6 0 -11 5 -11 10 0 6 2 10 4 10 3 0 8 -4 11 -10z m35 -7 c0 -5 -5 -15
-10 -23 -7 -12 -9 -10 -7 8 1 19 17 33 17 15z m-1525 -23 c3 -5 1 -10 -4 -10
-6 0 -11 5 -11 10 0 6 2 10 4 10 3 0 8 -4 11 -10z m1542 -32 c-3 -8 -6 -5 -6
6 -1 11 2 17 5 13 3 -3 4 -12 1 -19z m1883 -43 c0 -8 -7 -15 -15 -15 -16 0
-20 12 -8 23 11 12 23 8 23 -8z m-3700 -30 c0 -8 -7 -15 -15 -15 -8 0 -15 7
-15 15 0 8 7 15 15 15 8 0 15 -7 15 -15z m-400 -25 c0 -5 -2 -10 -4 -10 -3 0
-8 5 -11 10 -3 6 -1 10 4 10 6 0 11 -4 11 -10z m4395 -11 c0 -7 -8 -15 -17
-17 -12 -2 -15 2 -11 18 6 23 28 22 28 -1z m-305 -16 c25 -22 25 -33 0 -33
-11 0 -20 5 -20 11 0 5 -4 7 -10 4 -5 -3 -10 3 -10 14 0 26 13 27 40 4z m-100
-54 c0 -6 -4 -7 -10 -4 -5 3 -10 11 -10 16 0 6 5 7 10 4 6 -3 10 -11 10 -16z
m56 -56 c-10 -10 -19 5 -10 18 6 11 8 11 12 0 2 -7 1 -15 -2 -18z m-3076 -3
c0 -5 -2 -10 -4 -10 -3 0 -8 5 -11 10 -3 6 -1 10 4 10 6 0 11 -4 11 -10z
m3060 -11 c0 -5 -4 -9 -10 -9 -5 0 -10 7 -10 16 0 8 5 12 10 9 6 -3 10 -10 10
-16z m363 -4 c1 -5 -6 -11 -15 -13 -11 -2 -18 3 -18 13 0 17 30 18 33 0z
m-273 -5 c0 -5 -2 -10 -4 -10 -3 0 -8 5 -11 10 -3 6 -1 10 4 10 6 0 11 -4 11
-10z m227 -6 c-3 -3 -12 -4 -19 -1 -8 3 -5 6 6 6 11 1 17 -2 13 -5z m-301 -37
c4 -4 -2 -7 -14 -7 -12 0 -22 4 -22 9 0 10 26 9 36 -2z m144 3 c0 -5 -5 -10
-11 -10 -5 0 -7 5 -4 10 3 6 8 10 11 10 2 0 4 -4 4 -10z m-4320 -32 c0 -5 -11
-8 -25 -8 -14 0 -25 5 -25 11 0 5 4 8 9 5 5 -3 12 2 15 11 6 15 8 15 16 3 6
-8 10 -18 10 -22z m1270 0 c0 -4 -4 -8 -9 -8 -6 0 -12 4 -15 8 -3 5 1 9 9 9 8
0 15 -4 15 -9z m2886 3 c-3 -5 -15 -7 -26 -4 -28 7 -25 13 6 13 14 0 23 -4 20
-9z m378 -7 c9 -24 7 -28 -9 -14 -17 14 -20 30 -6 30 5 0 12 -7 15 -16z m-133
-17 c-13 -13 -26 -3 -16 12 3 6 11 8 17 5 6 -4 6 -10 -1 -17z m-3983 -13 c-4
-20 -34 -41 -44 -31 -8 8 24 47 38 47 5 0 8 -7 6 -16z m3740 -9 c2 -27 -7 -32
-26 -13 -18 18 -15 38 6 38 12 0 18 -8 20 -25z m-3048 5 c0 -5 -4 -10 -10 -10
-5 0 -10 5 -10 10 0 6 5 10 10 10 6 0 10 -4 10 -10z m447 -6 c2 -6 -3 -11 -12
-11 -8 0 -15 7 -15 15 0 15 22 12 27 -4z m-60 -23 c3 -20 1 -21 -12 -7 -18 17
-20 39 -3 34 6 -2 13 -14 15 -27z m-1291 -28 c-10 -10 -19 5 -10 18 6 11 8 11
12 0 2 -7 1 -15 -2 -18z m954 -7 c0 -11 -19 -15 -25 -6 -3 5 1 10 9 10 9 0 16
-2 16 -4z m58 -8 c9 -9 7 -14 -6 -24 -24 -18 -32 -17 -32 4 0 31 17 41 38 20z
m782 2 c0 -5 -5 -10 -11 -10 -5 0 -7 5 -4 10 3 6 8 10 11 10 2 0 4 -4 4 -10z
m68 -51 c-1 -38 -24 -38 -30 1 -5 34 -2 41 17 34 8 -3 13 -19 13 -35z m175 -3
c4 -10 1 -13 -9 -9 -7 3 -14 9 -14 14 0 14 17 10 23 -5z m-1723 -6 c0 -5 -4
-10 -10 -10 -5 0 -10 5 -10 10 0 6 5 10 10 10 6 0 10 -4 10 -10z m1935 -10 c3
-5 2 -10 -4 -10 -5 0 -13 5 -16 10 -3 6 -2 10 4 10 5 0 13 -4 16 -10z m-2197
-29 c3 -8 -1 -12 -9 -9 -7 2 -15 10 -17 17 -3 8 1 12 9 9 7 -2 15 -10 17 -17z
m330 -7 c-3 -19 -34 -41 -43 -32 -4 4 -4 16 0 27 8 25 48 29 43 5z m702 12 c0
-11 -19 -15 -25 -6 -3 5 1 10 9 10 9 0 16 -2 16 -4z m26 -58 c0 -12 -7 -23
-15 -26 -10 -3 -12 0 -8 12 4 10 7 22 7 27 0 5 4 9 9 9 4 0 8 -10 7 -22z m764
8 c0 -3 -4 -8 -10 -11 -5 -3 -10 -1 -10 4 0 6 5 11 10 11 6 0 10 -2 10 -4z
m127 -22 c-9 -9 -28 6 -21 18 4 6 10 6 17 -1 6 -6 8 -13 4 -17z m-1005 -33
c-3 -16 3 -24 18 -28 23 -6 22 -28 -1 -29 -28 -1 -49 17 -49 42 0 14 4 22 10
19 6 -4 7 1 3 11 -4 12 -2 15 8 12 8 -3 13 -15 11 -27z m814 20 c-4 -5 0 -11
6 -14 7 -2 9 -8 5 -13 -9 -10 -28 16 -21 28 3 4 7 8 10 8 3 0 3 -4 0 -9z m240
-13 c10 -12 13 -18 7 -14 -9 5 -13 -2 -13 -25 0 -28 -2 -30 -17 -18 -10 8 -14
9 -10 2 4 -6 3 -14 -3 -18 -13 -8 -13 18 1 32 8 8 7 14 -4 24 -12 12 -12 15 2
26 9 7 16 13 17 13 0 0 9 -10 20 -22z m44 13 c0 -6 -4 -13 -10 -16 -5 -3 -10
1 -10 9 0 9 5 16 10 16 6 0 10 -4 10 -9z m-200 -11 c0 -5 -7 -10 -16 -10 -8 0
-12 5 -9 10 3 6 10 10 16 10 5 0 9 -4 9 -10z m-970 -20 c0 -5 -4 -10 -10 -10
-5 0 -10 5 -10 10 0 6 5 10 10 10 6 0 10 -4 10 -10z m190 -10 c0 -5 -4 -10
-10 -10 -5 0 -10 5 -10 10 0 6 5 10 10 10 6 0 10 -4 10 -10z m768 -18 c6 -18
-15 -14 -22 4 -4 10 -1 14 6 12 6 -2 14 -10 16 -16z m-588 -27 c0 -8 -7 -15
-15 -15 -8 0 -15 7 -15 15 0 8 7 15 15 15 8 0 15 -7 15 -15z m3185 -5 c3 -5 1
-10 -4 -10 -6 0 -11 5 -11 10 0 6 2 10 4 10 3 0 8 -4 11 -10z m-59 -47 c-11
-11 -17 4 -9 23 7 18 8 18 11 1 2 -10 1 -21 -2 -24z m-3333 20 c-7 -2 -13 -13
-13 -24 0 -22 -15 -26 -23 -5 -7 17 11 36 33 35 10 0 11 -2 3 -6z m3267 -13
c0 -5 -5 -10 -11 -10 -5 0 -7 5 -4 10 3 6 8 10 11 10 2 0 4 -4 4 -10z m-4145
-10 c3 -5 -1 -10 -9 -10 -9 0 -16 5 -16 10 0 6 4 10 9 10 6 0 13 -4 16 -10z
m1633 -29 c-7 -2 -14 1 -16 8 -2 6 -9 8 -14 5 -7 -4 -8 -2 -4 4 5 9 12 8 27
-1 12 -7 15 -13 7 -16z m-1169 5 c10 -12 8 -13 -8 -9 -12 3 -21 9 -21 14 0 14
16 11 29 -5z m1473 -49 c23 -6 24 -37 1 -37 -23 0 -54 55 -45 78 5 14 8 13 16
-10 5 -14 18 -29 28 -31z m-2342 33 c0 -5 -5 -10 -11 -10 -5 0 -7 5 -4 10 3 6
8 10 11 10 2 0 4 -4 4 -10z m1044 -39 c-8 -9 -22 12 -17 26 6 15 7 14 13 -3 4
-10 6 -21 4 -23z m1166 29 c0 -5 -5 -10 -11 -10 -5 0 -7 5 -4 10 3 6 8 10 11
10 2 0 4 -4 4 -10z m-2120 -4 c0 -3 -4 -8 -10 -11 -5 -3 -10 -1 -10 4 0 6 5
11 10 11 6 0 10 -2 10 -4z m1395 -6 c3 -5 2 -10 -4 -10 -5 0 -13 5 -16 10 -3
6 -2 10 4 10 5 0 13 -4 16 -10z m-1500 -10 c3 -5 1 -10 -4 -10 -6 0 -11 5 -11
10 0 6 2 10 4 10 3 0 8 -4 11 -10z m2035 -7 c0 -5 -8 -17 -17 -28 -14 -18 -15
-18 -9 -2 3 10 6 23 6 28 0 5 5 9 10 9 6 0 10 -3 10 -7z m-1880 -13 c0 -5 -7
-10 -15 -10 -8 0 -15 5 -15 10 0 6 7 10 15 10 8 0 15 -4 15 -10z m1771 0 c13
-7 19 -7 19 0 0 5 5 10 10 10 6 0 10 -7 10 -16 0 -12 -6 -15 -22 -10 -13 3
-29 6 -35 6 -7 0 -13 5 -13 10 0 13 6 13 31 0z m349 -4 c0 -3 -4 -8 -10 -11
-5 -3 -10 -1 -10 4 0 6 5 11 10 11 6 0 10 -2 10 -4z m-1400 -15 c0 -5 -9 -11
-20 -14 -22 -6 -28 8 -7 16 19 8 27 8 27 -2z m1054 -16 c3 -8 1 -15 -4 -15 -6
0 -10 7 -10 15 0 8 2 15 4 15 2 0 6 -7 10 -15z m-1704 -11 c0 -8 -4 -12 -10
-9 -5 3 -10 10 -10 16 0 5 5 9 10 9 6 0 10 -7 10 -16z m1880 12 c0 -3 -4 -8
-10 -11 -5 -3 -10 -1 -10 4 0 6 5 11 10 11 6 0 10 -2 10 -4z m-871 -33 c10
-19 9 -23 -4 -23 -10 0 -15 9 -15 27 0 29 2 29 19 -4z m-699 7 c0 -5 -4 -10
-10 -10 -5 0 -10 5 -10 10 0 6 5 10 10 10 6 0 10 -4 10 -10z m-300 -29 c0 -20
-17 -37 -27 -28 -7 8 7 47 18 47 5 0 9 -9 9 -19z m1170 -6 c14 -19 14 -19 -2
-6 -10 7 -18 18 -18 24 0 6 1 8 3 6 1 -2 9 -13 17 -24z m827 7 c16 -10 13 -51
-4 -45 -7 3 -13 9 -13 13 0 5 -3 15 -6 24 -7 17 3 21 23 8z m-1934 -24 c2 -7
-1 -23 -6 -35 -8 -18 -13 -20 -24 -12 -16 14 -17 31 -1 47 15 15 25 15 31 0z
m730 -18 c6 -23 -10 -37 -25 -22 -12 12 -4 42 11 42 5 0 11 -9 14 -20z m-673
-36 c0 -16 -26 -19 -35 -4 -4 6 -4 18 -1 27 5 12 9 13 21 3 8 -7 15 -19 15
-26z m1090 26 c0 -5 -4 -10 -10 -10 -5 0 -10 5 -10 10 0 6 5 10 10 10 6 0 10
-4 10 -10z m-476 -21 c-8 -14 -24 -10 -24 6 0 9 6 12 15 9 8 -4 12 -10 9 -15z
m-954 -79 c0 -5 -2 -10 -4 -10 -3 0 -8 5 -11 10 -3 6 -1 10 4 10 6 0 11 -4 11
-10z m196 -139 c-7 -11 -36 -16 -36 -6 0 3 6 12 13 20 13 15 33 3 23 -14z
m339 -21 c3 -5 1 -10 -4 -10 -6 0 -11 5 -11 10 0 6 2 10 4 10 3 0 8 -4 11 -10z
m-255 -10 c0 -5 -4 -10 -10 -10 -5 0 -10 5 -10 10 0 6 5 10 10 10 6 0 10 -4
10 -10z m159 -76 c3 -17 2 -17 -20 -3 -32 22 -37 41 -7 30 13 -4 25 -17 27
-27z m-399 -35 c0 -5 -7 -9 -15 -9 -15 0 -20 12 -9 23 8 8 24 -1 24 -14z m341
-12 c-1 -12 -15 -9 -19 4 -3 6 1 10 8 8 6 -3 11 -8 11 -12z"/>
<path d="M1418 2125 c-3 -3 -78 -21 -167 -40 -90 -19 -170 -39 -179 -44 -20
-11 -24 -9 81 -35 37 -9 119 -42 182 -73 l115 -56 163 71 c89 39 176 76 192
82 29 11 23 14 -120 55 -135 40 -250 57 -267 40z m171 -34 c17 -11 7 -45 -12
-39 -13 5 -23 48 -10 48 4 0 14 -4 22 -9z"/>
<path d="M4460 5013 c0 -5 5 -15 10 -23 7 -12 9 -10 7 8 -1 19 -17 33 -17 15z"/>
<path d="M4540 4920 c0 -5 7 -10 16 -10 8 0 12 5 9 10 -3 6 -10 10 -16 10 -5
0 -9 -4 -9 -10z"/>
</g>
</svg>
